<svg width="30" height="30" viewBox="0 0 30 30" fill="none" xmlns="http://www.w3.org/2000/svg">
    <foreignObject x="0" y="0" width="0" height="0"><div xmlns="http://www.w3.org/1999/xhtml" style="backdrop-filter:blur(4px);clip-path:url(#bgblur_0_1_1548_clip_path);height:100%;width:100%"></div></foreignObject><g data-figma-bg-blur-radius="8">
    <rect width="30" height="30" rx="15" fill="white" fill-opacity="0.1"/>
    <path d="M9 18H21V16H9V18ZM9 15H21V13H9V15ZM9 12H21V10H9V12ZM25 26L21 22H7C6.45 22 5.97917 21.8042 5.5875 21.4125C5.19583 21.0208 5 20.55 5 20V8C5 7.45 5.19583 6.97917 5.5875 6.5875C5.97917 6.19583 6.45 6 7 6H23C23.55 6 24.0208 6.19583 24.4125 6.5875C24.8042 6.97917 25 7.45 25 8V26ZM7 20H21.85L23 21.125V8H7V20ZM7 20V8V20Z" fill="#433422"/>
</g>
    <defs>
        <clipPath id="bgblur_0_1_1548_clip_path" transform="translate(0 0)"><rect width="30" height="30" rx="15"/>
        </clipPath></defs>
</svg>
